<svg xmlns="http://www.w3.org/2000/svg" width="489.779" height="122.809" viewBox="0 0 489.779 122.809">
  <g id="logo" transform="translate(-44.11 -126)">
    <path id="Path_2754" data-name="Path 2754" d="M118.414,239.889a41.194,41.194,0,1,1,41.194-41.194,41.24,41.24,0,0,1-41.194,41.194m0-81.877a40.676,40.676,0,1,0,40.676,40.676,40.722,40.722,0,0,0-40.676-40.676" transform="translate(-12.924 -12.296)" fill="#2cc4f2"/>
    <path id="Path_2755" data-name="Path 2755" d="M213.72,189.034,227.4,202.708a12.345,12.345,0,0,1,0,17.442L213.69,233.856l1.494,1.494,13.705-13.705a14.461,14.461,0,0,0,0-20.43L215.214,187.54l-1.494,1.494Z" transform="translate(-66.195 -24.022)" fill="#4e459b"/>
    <path id="Path_2756" data-name="Path 2756" d="M107.094,145.424,120.8,131.719a12.345,12.345,0,0,1,17.442,0l13.736,13.736,1.494-1.494-13.736-13.736a14.461,14.461,0,0,0-20.43,0L105.6,143.93Z" transform="translate(-24.002)" fill="#4e459b"/>
    <path id="Path_2757" data-name="Path 2757" d="M63.564,233.867,49.829,220.131a12.345,12.345,0,0,1,0-17.442l13.705-13.705L62.04,187.49,48.335,201.2a14.461,14.461,0,0,0,0,20.43L62.07,235.36l1.494-1.494Z" transform="translate(0 -24.002)" fill="#4e459b"/>
    <path id="Path_2758" data-name="Path 2758" d="M151.956,295.58,138.25,309.285a12.345,12.345,0,0,1-17.442,0L107.134,295.61,105.64,297.1l13.675,13.675a14.461,14.461,0,0,0,20.43,0l13.705-13.705Z" transform="translate(-24.018 -66.195)" fill="#4e459b"/>
    <path id="Path_2759" data-name="Path 2759" d="M136.671,229.632a12.681,12.681,0,1,1,12.681-12.681,12.695,12.695,0,0,1-12.681,12.681m0-24.843a12.163,12.163,0,1,0,12.163,12.163,12.177,12.177,0,0,0-12.163-12.163" transform="translate(-31.181 -30.552)" fill="#4e459b"/>
    <path id="Path_2760" data-name="Path 2760" d="M146.738,221.574a5.444,5.444,0,1,1-5.444-5.444,5.446,5.446,0,0,1,5.444,5.444" transform="translate(-35.81 -35.182)" fill="#2cc4f2"/>
    <rect id="Rectangle_89" data-name="Rectangle 89" width="62.35" height="0.518" transform="translate(83.284 208.177) rotate(-45)" fill="#2cc4f2"/>
    <rect id="Rectangle_90" data-name="Rectangle 90" width="0.518" height="62.35" transform="translate(83.285 164.448) rotate(-45)" fill="#2cc4f2"/>
    <path id="Path_2761" data-name="Path 2761" d="M120.792,238.553a37.482,37.482,0,1,1,37.482-37.482,37.524,37.524,0,0,1-37.482,37.482m0-74.445a36.963,36.963,0,1,0,36.963,36.963,37.006,37.006,0,0,0-36.963-36.963" transform="translate(-15.301 -14.673)" fill="#4e459b"/>
    <path id="Path_2762" data-name="Path 2762" d="M358.763,202.827l-3.079,1.372q-1.445-3.118-3.688-8.273t-6.231-14H318.252q-3.722,8.294-6.389,14.376t-3.469,7.81l-2.884-1.286q1.39-3.027,10.5-23.057t15.052-33.33h2.439q4.088,9.346,13.62,30.532t11.638,25.856m-14.193-23.594q-2.689-6.145-6.249-14.132t-6.286-14l-.085.018q-2.99,6.648-6.523,14.65t-5.975,13.467l-.018.043h25.148l-.018-.043Z" transform="translate(-102.036 -7.979)" fill="#4e459b"/>
    <path id="Path_2763" data-name="Path 2763" d="M439.775,203.495H436.41q0-2.524.043-9.011t.043-18.607q0-4.8-.043-12.589t-.043-16.168h3.365q0,6.026-.043,14t-.043,13.028q0,12.8.043,19.808t.043,9.535" transform="translate(-153.132 -8.244)" fill="#4e459b"/>
    <path id="Path_2764" data-name="Path 2764" d="M559.859,202.843l-3.28.756-10.815-53.442h-.085q-1.39,3.5-7.157,18.954t-10.779,27.965h-2.908q-4.755-11.532-10.962-28.093t-7.09-18.8h-.128q-.5,2.012-4.572,19.777t-7.316,33.549l-3.146-.591q3.914-18.143,8.188-36.415t4.609-19.789l4.127-.628q.421.969,5.828,15.51t12.059,31.007h.128q5.222-12.922,11.26-29.446t6.292-17.07l3.835.335q.128.924,4.042,18.838t7.871,37.573" transform="translate(-174.683 -7.842)" fill="#4e459b"/>
    <path id="Path_2765" data-name="Path 2765" d="M687.942,174.175c-.055,2.024-.085,4.383-.085,7.09v6.712q0,4.252.043,9.492c.024,3.493.043,5.438.043,5.828-.335.055-1.164.128-2.481.213s-2.341.128-3.073.128a61.6,61.6,0,0,1-16.8-2.17,28.3,28.3,0,0,1-12.882-7.474,25.351,25.351,0,0,1-5.182-8.127,28.853,28.853,0,0,1-2.018-11.114,25,25,0,0,1,3.835-13.705,29.135,29.135,0,0,1,10.273-9.742,35.473,35.473,0,0,1,10.376-3.81,58.218,58.218,0,0,1,12.187-1.286c.616,0,1.2.006,1.75.018s1.049.024,1.494.024l.171,2.737c-.11,0-.543-.006-1.3-.018s-1.347-.024-1.768-.024a52.6,52.6,0,0,0-11.937,1.244,35.476,35.476,0,0,0-9.535,3.64,25.563,25.563,0,0,0-8.5,8.145,22.425,22.425,0,0,0-3.664,12.864,25.384,25.384,0,0,0,3.219,12.882,21.35,21.35,0,0,0,8.358,8.59,36.677,36.677,0,0,0,9.895,3.518,70.762,70.762,0,0,0,14.315,1.2c0-.445-.006-3.152-.018-8.1s-.037-11.205-.061-18.753h3.365Z" transform="translate(-234.753 -7.889)" fill="#4e459b"/>
    <path id="Path_2766" data-name="Path 2766" d="M814.636,174.369a36.313,36.313,0,0,1-1.957,12.211,27.835,27.835,0,0,1-5.914,9.767,24.412,24.412,0,0,1-7.932,5.786,23.832,23.832,0,0,1-9.785,1.914,24.733,24.733,0,0,1-10.041-2,23.676,23.676,0,0,1-8.273-6.206,28,28,0,0,1-5.536-9.6,39.384,39.384,0,0,1,.232-24.435,29.287,29.287,0,0,1,6.523-10.206,21.784,21.784,0,0,1,7.7-5.176,25.061,25.061,0,0,1,9.389-1.768,24.639,24.639,0,0,1,9.62,1.829,23.6,23.6,0,0,1,8.1,5.871,28.213,28.213,0,0,1,5.9,9.639,35.908,35.908,0,0,1,1.981,12.376m-3.365-.421a31.816,31.816,0,0,0-2.1-11.663,26.141,26.141,0,0,0-5.853-9.133,19.055,19.055,0,0,0-6.822-4.524,21.21,21.21,0,0,0-7.493-1.372,20.875,20.875,0,0,0-7.6,1.347,19.508,19.508,0,0,0-6.548,4.335,25.849,25.849,0,0,0-6,9.3,33.491,33.491,0,0,0-2.128,12.169,33.132,33.132,0,0,0,1.939,11.724,26.28,26.28,0,0,0,5.853,9.285,19.074,19.074,0,0,0,6.566,4.487,20.653,20.653,0,0,0,7.913,1.536,21.116,21.116,0,0,0,7.645-1.433,18.115,18.115,0,0,0,6.548-4.335,28.845,28.845,0,0,0,6.084-9.242,33.735,33.735,0,0,0,2-12.486" transform="translate(-280.759 -7.284)" fill="#4e459b"/>
    <path id="Path_2767" data-name="Path 2767" d="M309.485,291.175V278.952H305.51V277.33h9.565v1.622h-3.969v12.224Z" transform="translate(-102.036 -59.071)" fill="#2cc4f2"/>
    <path id="Path_2768" data-name="Path 2768" d="M338,287.61a3.676,3.676,0,0,0,.3,1.3,3.155,3.155,0,0,0,.927,1.232,5.122,5.122,0,0,0,1.585.908,6.959,6.959,0,0,0,2.317.354c.287,0,.835-.037,1.658-.1v1.622c-.128.018-.5.055-1.1.1a4.631,4.631,0,0,1-.6.018,8.269,8.269,0,0,1-2.871-.463,6.041,6.041,0,0,1-2.085-1.231,4.871,4.871,0,0,1-1.3-1.78,4.675,4.675,0,0,1-.445-2.048,5.95,5.95,0,0,1,.5-2.622,5.465,5.465,0,0,1,1.232-1.744,5.2,5.2,0,0,1,1.6-.927,4.6,4.6,0,0,1,3.493.122,5.061,5.061,0,0,1,1.5,1.085,5.664,5.664,0,0,1,.89,1.64,8.439,8.439,0,0,1,.287,2.53h-7.877Zm6.2-1.622s-.055-.177-.158-.463a2.983,2.983,0,0,0-.567-1,2.932,2.932,0,0,0-.908-.7,2.882,2.882,0,0,0-1.3-.268,3.265,3.265,0,0,0-1,.159,2.524,2.524,0,0,0-.945.573,3.629,3.629,0,0,0-.786.945,1.788,1.788,0,0,0-.354.75H344.2Z" transform="translate(-114.086 -60.87)" fill="#2cc4f2"/>
    <path id="Path_2769" data-name="Path 2769" d="M375.594,293.016c-.854.073-1.445.1-1.762.1a8.279,8.279,0,0,1-2.9-.463,6.37,6.37,0,0,1-2.085-1.25,4.864,4.864,0,0,1-1.28-1.78,4.675,4.675,0,0,1-.445-2.048,4.893,4.893,0,0,1,.445-2.085,5.209,5.209,0,0,1,1.28-1.78,6.305,6.305,0,0,1,2.085-1.25,8.3,8.3,0,0,1,2.9-.463c.323,0,.908.037,1.762.11l-.14,1.622c-.8-.073-1.335-.11-1.622-.11a6.775,6.775,0,0,0-2.262.354,5.383,5.383,0,0,0-1.585.927,3.389,3.389,0,0,0-.945,1.232,3.842,3.842,0,0,0-.3,1.445,3.753,3.753,0,0,0,.3,1.427,3.39,3.39,0,0,0,.945,1.231,5.021,5.021,0,0,0,1.567.908,6.81,6.81,0,0,0,2.28.354c.286,0,.823-.037,1.622-.1l.14,1.622Z" transform="translate(-126.085 -60.894)" fill="#2cc4f2"/>
    <path id="Path_2770" data-name="Path 2770" d="M397.793,271.57v6.773l-.018.018a.018.018,0,0,0,.018.018,3.75,3.75,0,0,0,.732-.213,5.966,5.966,0,0,1,1.78-.268,5.718,5.718,0,0,1,1.317.159,6.749,6.749,0,0,1,1.232.5,3.888,3.888,0,0,1,1.03.89,3.765,3.765,0,0,1,.677,1.213,3.824,3.824,0,0,1,.3,1.494v6.773h-1.622V282.19a3.733,3.733,0,0,0-.14-.945,2.618,2.618,0,0,0-1.122-1.3,3.4,3.4,0,0,0-1.695-.427,4.617,4.617,0,0,0-1.445.25,3.239,3.239,0,0,0-1.049.573v8.59h-1.6V271.576h1.6Z" transform="translate(-137.432 -56.822)" fill="#2cc4f2"/>
    <path id="Path_2771" data-name="Path 2771" d="M427.2,282.127v.323a3.785,3.785,0,0,0,.75-.232,6.24,6.24,0,0,1,1.8-.268,5.228,5.228,0,0,1,2.567.677,3.764,3.764,0,0,1,1.695,2.085,2.246,2.246,0,0,1,.213.573,3.831,3.831,0,0,1,.073.927v6.773h-1.622v-6.773a2.656,2.656,0,0,0-.25-1.158,2.879,2.879,0,0,0-.658-.817,4.134,4.134,0,0,0-.945-.5,3.644,3.644,0,0,0-1.067-.159,5.131,5.131,0,0,0-1.481.25,2.775,2.775,0,0,0-1.067.555v8.608h-1.6V282.139h1.6Z" transform="translate(-148.912 -60.874)" fill="#2cc4f2"/>
    <path id="Path_2772" data-name="Path 2772" d="M455.483,289.731a5.263,5.263,0,0,1-.463-2.176,5.369,5.369,0,0,1,.463-2.195,5.812,5.812,0,0,1,1.195-1.78,5.918,5.918,0,0,1,1.78-1.195,5.131,5.131,0,0,1,2.177-.445,5.294,5.294,0,0,1,2.195.445,6.061,6.061,0,0,1,1.762,1.195,5.977,5.977,0,0,1,1.195,1.78,5.285,5.285,0,0,1,.463,2.195,5.2,5.2,0,0,1-.463,2.176,6.06,6.06,0,0,1-1.195,1.762,5.637,5.637,0,0,1-1.762,1.195,5.541,5.541,0,0,1-2.195.463,5.326,5.326,0,0,1-2.177-.463,5.447,5.447,0,0,1-1.78-1.195,5.637,5.637,0,0,1-1.195-1.762m1.463-3.743a4.266,4.266,0,0,0-.3,1.567,4.077,4.077,0,0,0,.3,1.53,3.833,3.833,0,0,0,.854,1.28,3.627,3.627,0,0,0,1.28.872,4.086,4.086,0,0,0,3.1,0,3.986,3.986,0,0,0,1.28-.872,3.9,3.9,0,0,0,.854-1.28,4.225,4.225,0,0,0,.3-1.53,4.123,4.123,0,0,0-.3-1.567,4.043,4.043,0,0,0-.854-1.268,4.315,4.315,0,0,0-1.28-.853,4.086,4.086,0,0,0-3.1,0,3.834,3.834,0,0,0-1.28.853,3.976,3.976,0,0,0-.854,1.268" transform="translate(-160.396 -60.87)" fill="#2cc4f2"/>
    <rect id="Rectangle_91" data-name="Rectangle 91" width="1.603" height="17.357" transform="translate(315.096 214.748)" fill="#2cc4f2"/>
    <path id="Path_2773" data-name="Path 2773" d="M506.853,289.731a5.263,5.263,0,0,1-.463-2.176,5.369,5.369,0,0,1,.463-2.195,5.812,5.812,0,0,1,1.195-1.78,5.918,5.918,0,0,1,1.78-1.195A5.131,5.131,0,0,1,512,281.94a5.294,5.294,0,0,1,2.195.445,6.062,6.062,0,0,1,1.762,1.195,5.978,5.978,0,0,1,1.195,1.78,5.286,5.286,0,0,1,.463,2.195,5.2,5.2,0,0,1-.463,2.176,6.06,6.06,0,0,1-1.195,1.762,5.635,5.635,0,0,1-1.762,1.195,5.541,5.541,0,0,1-2.195.463,5.325,5.325,0,0,1-2.176-.463,5.447,5.447,0,0,1-1.78-1.195,5.636,5.636,0,0,1-1.195-1.762m1.463-3.743a4.267,4.267,0,0,0-.3,1.567,4.077,4.077,0,0,0,.3,1.53,3.833,3.833,0,0,0,.854,1.28,3.627,3.627,0,0,0,1.28.872,4.086,4.086,0,0,0,3.1,0,3.985,3.985,0,0,0,1.28-.872,3.894,3.894,0,0,0,.854-1.28,4.224,4.224,0,0,0,.3-1.53,4.122,4.122,0,0,0-.3-1.567,4.042,4.042,0,0,0-.854-1.268,4.314,4.314,0,0,0-1.28-.853,4.085,4.085,0,0,0-3.1,0,3.834,3.834,0,0,0-1.28.853,3.976,3.976,0,0,0-.853,1.268" transform="translate(-180.448 -60.87)" fill="#2cc4f2"/>
    <path id="Path_2774" data-name="Path 2774" d="M547.015,293.132l.037-.018a1.147,1.147,0,0,0-.341-.037,8.278,8.278,0,0,1-2.9-.463,6.047,6.047,0,0,1-2.1-1.25,4.959,4.959,0,0,1-1.28-1.762,4.676,4.676,0,0,1-.445-2.048,4.813,4.813,0,0,1,.445-2.067,4.981,4.981,0,0,1,1.28-1.762,6.04,6.04,0,0,1,2.085-1.231,8.279,8.279,0,0,1,2.9-.463h.713c.518.037.927.073,1.231.1v11.419a5.936,5.936,0,0,1-.268,1.78,4.653,4.653,0,0,1-.835,1.512,4.7,4.7,0,0,1-1.335,1.085,3.73,3.73,0,0,1-1.725.409,3.533,3.533,0,0,1-1.677-.409,7.429,7.429,0,0,1-1.762-1.372l1.1-1.14a5.89,5.89,0,0,0,1.317,1.055,2.407,2.407,0,0,0,1.018.25,2,2,0,0,0,1.018-.268,2.7,2.7,0,0,0,.823-.677,3.214,3.214,0,0,0,.518-1.03,4.359,4.359,0,0,0,.2-1.195v-.427Zm-.323-9.48a6.6,6.6,0,0,0-2.28.341,4.891,4.891,0,0,0-1.567.908,3.106,3.106,0,0,0-.945,1.213,3.844,3.844,0,0,0-.3,1.445,3.555,3.555,0,0,0,.3,1.408,3.39,3.39,0,0,0,.945,1.232,5.022,5.022,0,0,0,1.567.908,6.922,6.922,0,0,0,2.3.354l.3-.018v-7.785h-.323Z" transform="translate(-193.56 -60.905)" fill="#2cc4f2"/>
    <path id="Path_2775" data-name="Path 2775" d="M578.007,282.232v11.407a5.937,5.937,0,0,1-.268,1.78,4.407,4.407,0,0,1-.823,1.512,4.526,4.526,0,0,1-1.335,1.085,3.73,3.73,0,0,1-1.725.409,3.606,3.606,0,0,1-1.695-.409,7.429,7.429,0,0,1-1.762-1.372l1.122-1.14a5.4,5.4,0,0,0,1.3,1.049,2.418,2.418,0,0,0,1.03.25,2,2,0,0,0,1.018-.268,2.268,2.268,0,0,0,.8-.677,3.682,3.682,0,0,0,.536-1.03,4.171,4.171,0,0,0,.2-1.195v-.768a4.1,4.1,0,0,1-2.53.567,5.875,5.875,0,0,1-1.567-.25,3.841,3.841,0,0,1-1.445-.823,4.291,4.291,0,0,1-1.085-1.353,3.989,3.989,0,0,1-.427-1.853V282.22h1.622v6.968a2.529,2.529,0,0,0,.25,1.1,2.134,2.134,0,0,0,.622.8,2.909,2.909,0,0,0,.927.536,3.489,3.489,0,0,0,1.085.2,2.9,2.9,0,0,0,1.427-.323,5.765,5.765,0,0,0,1.122-.8v-8.48h1.6Z" transform="translate(-205.024 -60.98)" fill="#2cc4f2"/>
    <path id="Path_2776" data-name="Path 2776" d="M620.039,287.637a3.178,3.178,0,0,0,1.268,1.6,2.84,2.84,0,0,0,1.5.39,3.62,3.62,0,0,0,1.122-.2,2.9,2.9,0,0,0,.854-.5,2.966,2.966,0,0,0,.555-.75,2.453,2.453,0,0,0,.177-.982,1.6,1.6,0,0,0-.2-.75,2.75,2.75,0,0,0-.658-.64,10.009,10.009,0,0,0-.963-.536c-.232-.091-.463-.2-.695-.287l-.122-.055-.091-.055c-.092-.018-.128-.037-.14-.055a7.9,7.9,0,0,1-1.317-.5,5.529,5.529,0,0,1-1.25-.75,4.316,4.316,0,0,1-1-1.085,2.624,2.624,0,0,1-.427-1.5,3.923,3.923,0,0,1,.354-1.64,3.187,3.187,0,0,1,.927-1.28,4.733,4.733,0,0,1,1.353-.835,4.641,4.641,0,0,1,1.695-.287,5.043,5.043,0,0,1,2.408.585,4.85,4.85,0,0,1,1.835,2.372l-1.481.64a3.35,3.35,0,0,0-1.232-1.6,3.043,3.043,0,0,0-1.53-.372,3.247,3.247,0,0,0-1.1.177,2.419,2.419,0,0,0-.835.5,2.243,2.243,0,0,0-.573.75,2.831,2.831,0,0,0-.2,1,1.219,1.219,0,0,0,.213.713,1.842,1.842,0,0,0,.658.64,5.075,5.075,0,0,0,.963.555l.518.232.518.213c.213.073.445.159.695.25l.323.128.323.122a7.078,7.078,0,0,1,1.268.732,4.944,4.944,0,0,1,1,1.1,2.853,2.853,0,0,1,.39,1.512,3.7,3.7,0,0,1-.341,1.622,3.98,3.98,0,0,1-.927,1.28,3.849,3.849,0,0,1-1.39.835,4.543,4.543,0,0,1-1.677.286,4.786,4.786,0,0,1-2.39-.6,4.565,4.565,0,0,1-1.853-2.353l1.481-.64Z" transform="translate(-224.237 -58.922)" fill="#2cc4f2"/>
    <path id="Path_2777" data-name="Path 2777" d="M648.383,289.731a5.262,5.262,0,0,1-.463-2.176,5.368,5.368,0,0,1,.463-2.195,5.81,5.81,0,0,1,1.195-1.78,5.918,5.918,0,0,1,1.78-1.195,5.131,5.131,0,0,1,2.176-.445,5.246,5.246,0,0,1,2.189.445,6.062,6.062,0,0,1,1.762,1.195,5.979,5.979,0,0,1,1.195,1.78,5.286,5.286,0,0,1,.463,2.195,5.2,5.2,0,0,1-.463,2.176,6.061,6.061,0,0,1-1.195,1.762,5.635,5.635,0,0,1-1.762,1.195,5.534,5.534,0,0,1-2.189.463,5.347,5.347,0,0,1-2.176-.463,5.447,5.447,0,0,1-1.78-1.195,5.636,5.636,0,0,1-1.195-1.762m1.463-3.743a4.266,4.266,0,0,0-.3,1.567,4.076,4.076,0,0,0,.3,1.53,3.831,3.831,0,0,0,.854,1.28,3.627,3.627,0,0,0,1.28.872,4.086,4.086,0,0,0,3.1,0,4.076,4.076,0,0,0,1.286-.872,3.9,3.9,0,0,0,.854-1.28,4.225,4.225,0,0,0,.3-1.53,4.123,4.123,0,0,0-.3-1.567,4.042,4.042,0,0,0-.854-1.268,4.014,4.014,0,0,0-2.835-1.158,4.22,4.22,0,0,0-1.549.3,3.833,3.833,0,0,0-1.28.853,3.974,3.974,0,0,0-.854,1.268" transform="translate(-235.694 -60.87)" fill="#2cc4f2"/>
    <rect id="Rectangle_92" data-name="Rectangle 92" width="1.603" height="17.357" transform="translate(432.699 214.748)" fill="#2cc4f2"/>
    <path id="Path_2778" data-name="Path 2778" d="M700.914,282.24v6.785a2.5,2.5,0,0,0,.213,1.067,2.17,2.17,0,0,0,.567.817,2.742,2.742,0,0,0,.89.555,3.123,3.123,0,0,0,1.055.2,3.313,3.313,0,0,0,1.085-.2,2.812,2.812,0,0,0,.872-.555,2.238,2.238,0,0,0,.585-.817,3.149,3.149,0,0,0,.2-1.067V282.24h1.6v6.785a3.947,3.947,0,0,1-.341,1.713,4.488,4.488,0,0,1-.945,1.372,4.3,4.3,0,0,1-1.39.854,4.834,4.834,0,0,1-1.677.3,4.582,4.582,0,0,1-1.658-.3,3.615,3.615,0,0,1-1.372-.854,4.332,4.332,0,0,1-.963-1.372,4.266,4.266,0,0,1-.354-1.713V282.24H700.9Z" transform="translate(-255.742 -60.987)" fill="#2cc4f2"/>
    <path id="Path_2779" data-name="Path 2779" d="M734.022,281.828h-2.884v5.255a2.768,2.768,0,0,0,.177,1.085,1.869,1.869,0,0,0,.463.732,1.576,1.576,0,0,0,.713.39,2.634,2.634,0,0,0,.908.159l.908-.073.177,1.622c-.213.018-.39.037-.555.055a1.946,1.946,0,0,1-.286.018h-.25a4.579,4.579,0,0,1-1.482-.25,3.014,3.014,0,0,1-1.25-.75,3.379,3.379,0,0,1-.835-1.25,4.786,4.786,0,0,1-.3-1.744v-5.255H728.7V280.2h.823v-3.17h1.6v3.17h2.884v1.622Z" transform="translate(-267.226 -58.954)" fill="#2cc4f2"/>
    <path id="Path_2780" data-name="Path 2780" d="M753.36,277.33h1.994v1.975H753.36Zm1.8,13.845h-1.6V280.323h1.6Z" transform="translate(-276.851 -59.071)" fill="#2cc4f2"/>
    <path id="Path_2781" data-name="Path 2781" d="M772.263,289.731a5.264,5.264,0,0,1-.463-2.176,5.37,5.37,0,0,1,.463-2.195,5.814,5.814,0,0,1,1.195-1.78,5.918,5.918,0,0,1,1.78-1.195,5.131,5.131,0,0,1,2.176-.445,5.246,5.246,0,0,1,2.189.445,6.062,6.062,0,0,1,1.762,1.195,5.979,5.979,0,0,1,1.195,1.78,5.286,5.286,0,0,1,.463,2.195,5.2,5.2,0,0,1-.463,2.176,6.061,6.061,0,0,1-1.195,1.762,5.637,5.637,0,0,1-1.762,1.195,5.534,5.534,0,0,1-2.189.463,5.346,5.346,0,0,1-2.176-.463,5.447,5.447,0,0,1-1.78-1.195,5.639,5.639,0,0,1-1.195-1.762m1.463-3.743a4.266,4.266,0,0,0-.3,1.567,4.076,4.076,0,0,0,.3,1.53,3.833,3.833,0,0,0,.854,1.28,3.627,3.627,0,0,0,1.28.872,4.086,4.086,0,0,0,3.1,0,3.987,3.987,0,0,0,1.28-.872,3.9,3.9,0,0,0,.854-1.28,4.225,4.225,0,0,0,.3-1.53,4.123,4.123,0,0,0-.3-1.567,4.044,4.044,0,0,0-.854-1.268,4.316,4.316,0,0,0-1.28-.853,4.086,4.086,0,0,0-3.1,0,3.834,3.834,0,0,0-1.28.853,3.976,3.976,0,0,0-.854,1.268" transform="translate(-284.049 -60.87)" fill="#2cc4f2"/>
    <path id="Path_2782" data-name="Path 2782" d="M806.987,282.127v.323a3.783,3.783,0,0,0,.75-.232,6.239,6.239,0,0,1,1.8-.268,5.228,5.228,0,0,1,2.567.677,3.764,3.764,0,0,1,1.695,2.085,2.248,2.248,0,0,1,.213.573,3.832,3.832,0,0,1,.073.927v6.773h-1.622v-6.773a2.657,2.657,0,0,0-.25-1.158,2.879,2.879,0,0,0-.658-.817,4.133,4.133,0,0,0-.945-.5,3.644,3.644,0,0,0-1.067-.159,5.13,5.13,0,0,0-1.481.25,2.776,2.776,0,0,0-1.067.555v8.608h-1.6V282.139h1.6Z" transform="translate(-297.161 -60.874)" fill="#2cc4f2"/>
    <path id="Path_2783" data-name="Path 2783" d="M835.767,291.014a5.96,5.96,0,0,0,1.317.39,3.5,3.5,0,0,0,.8.11,5.461,5.461,0,0,0,1.353-.159,2.9,2.9,0,0,0,.927-.39,1.653,1.653,0,0,0,.555-.573,1.161,1.161,0,0,0,.177-.622.987.987,0,0,0-.518-.786,4.761,4.761,0,0,0-1.853-.585,5.912,5.912,0,0,1-2.689-1.036,2.325,2.325,0,0,1-1.03-1.957,2.752,2.752,0,0,1,.354-1.372,3.658,3.658,0,0,1,.982-1.067,5.134,5.134,0,0,1,1.463-.7,6.584,6.584,0,0,1,1.853-.232,7.36,7.36,0,0,1,1.122.1,7.139,7.139,0,0,1,1.567.536l-.585,1.475a13.366,13.366,0,0,0-1.317-.408,7,7,0,0,0-.786-.091,7.284,7.284,0,0,0-1.353.14,3.142,3.142,0,0,0-.945.39,1.53,1.53,0,0,0-.549.573,1.129,1.129,0,0,0-.177.64.97.97,0,0,0,.537.786,5.582,5.582,0,0,0,1.853.585,6.651,6.651,0,0,1,2.689,1.03,2.359,2.359,0,0,1,1.018,1.957,2.636,2.636,0,0,1-.341,1.372,2.957,2.957,0,0,1-.982,1.067,4.842,4.842,0,0,1-1.475.7,6.451,6.451,0,0,1-1.835.232,6.753,6.753,0,0,1-1.14-.11,7.136,7.136,0,0,1-1.567-.537l.585-1.481Z" transform="translate(-308.645 -60.909)" fill="#2cc4f2"/>
  </g>
</svg>
