<svg width="204" height="69" fill="none" xmlns="http://www.w3.org/2000/svg"><path fill-rule="evenodd" clip-rule="evenodd" d="M115.868 33.47v16.032h-10.894v-26.78h30.501l-.022.607v10.14h-19.585ZM104.974 7.42h30.569v9.579h-21.867l-8.702-9.58Z" fill="#fff"/><path d="M173.206 7.42h-34.347v9.579h34.347v-9.58ZM161.637 18.898h-11.209v30.603h11.209V18.898ZM101.679 18.898H90.47v30.603h11.209V18.898ZM101.679 7.42H90.47v9.579h11.209v-9.58Z" fill="#fff"/><path fill-rule="evenodd" clip-rule="evenodd" d="M57.822 23.846v25.656H46.927V23.284h10.917l-.023.562Z" fill="#fff"/><path fill-rule="evenodd" clip-rule="evenodd" d="M46.95 7.42h24.599c6.397 0 11.771 4.385 13.3 10.265 1.709 6.644-.652 14.525-8.027 16.616l10.343 15.2H74.91L64.376 34.055l4.092-9.073h1.53c6.498 0 5.666-8.15-.776-7.881H46.939V7.42h.01ZM.022 7.442v9.905h20.72c6.173 0 11.221 4.992 11.221 11.12 0 6.127-5.576 11.141-11.771 11.141h-8.904V23.992l.022-.585H0v26.106h22.35c11.682 0 21.26-9.467 21.26-21.047 0-12.794-10.286-21.046-22.496-21.046H0v.022h.022Z" fill="#fff"/><path fill-rule="evenodd" clip-rule="evenodd" d="m194.387 0-5.014 6.543L184.359 0h-8.545l9.298 12.12-11.895 15.515h9.613c12.232-15.976.539-.731 21.159-27.635h-9.602ZM191.206 22.093l4.249 5.542H204l-8.612-11.265-4.182 5.723Z" fill="#72C5E8"/><path d="M.394 67.432 3.688 59.9h2.406l3.316 7.533H7.476l-.708-1.664H3.002l-.72 1.664H.394Zm3.26-3.182h2.462l-.708-1.641-.461-1.17h-.124l-.46 1.17-.709 1.641ZM11.648 67.432V59.9h1.686v7.533h-1.686ZM16.2 67.432V59.9h4.16c1.856 0 2.913.821 2.913 2.26 0 1.226-.709 1.956-2.125 2.091v.09c.674.18.933.54 1.214 1.068l1.09 2.024h-1.956l-1.034-1.956c-.304-.585-.585-.776-1.462-.776h-1.113v2.732h-1.686Zm1.687-3.991h2.462c.799 0 1.159-.225 1.159-1.012 0-.742-.36-1-1.159-1h-2.462v2.012Z" fill="#fff"/><path d="M43.206 68.557v-9.77h1.552v9.77h-1.552Z" fill="#72C5E8"/><path d="M64.882 67.432V59.9h1.686v6.015h4.486v1.518h-6.172ZM73.18 67.432l3.293-7.533h2.406l3.317 7.533h-1.934l-.708-1.664h-3.767l-.719 1.664h-1.889Zm3.248-3.182h2.463l-.709-1.641-.46-1.17h-.124l-.461 1.17-.709 1.641ZM84.433 67.432V59.9h1.799l2.698 3.564 1.034 1.586h.124l-.078-1.518v-3.632h1.686v7.533h-1.799l-2.777-3.598-.956-1.416h-.112l.067 1.383v3.631h-1.686ZM94.63 67.432V59.9h3.632c2.417 0 3.946 1.406 3.946 3.767 0 2.36-1.529 3.766-3.946 3.766H94.63Zm1.687-6.004v4.498h1.945c1.529 0 2.147-.439 2.147-2.249s-.618-2.249-2.147-2.249h-1.945Z" fill="#fff"/><path d="M122.164 68.557v-9.77h1.552v9.77h-1.552Z" fill="#72C5E8"/><path d="M143.694 64.891v-.067h1.686v.202c0 .697.349.978 1.878.978 1.349 0 1.664-.202 1.664-.708 0-.46-.259-.63-1.035-.764l-2.113-.304c-1.349-.214-2.148-.888-2.148-2.114 0-1.135.922-2.327 3.452-2.327 2.316 0 3.395 1.068 3.395 2.653v.068h-1.697v-.158c0-.72-.371-1.023-1.867-1.023-1.214 0-1.585.236-1.585.72 0 .438.247.596.877.708l2.114.337c1.686.27 2.293 1.091 2.293 2.125 0 1.226-.955 2.328-3.35 2.328s-3.564-.9-3.564-2.654ZM153.228 67.432V59.9h6.374v1.518h-4.688v1.473h4.52v1.507h-4.52v1.517h4.688v1.518h-6.374ZM161.772 67.432l3.294-7.533h2.406l3.317 7.533h-1.934l-.708-1.664h-3.766l-.72 1.664h-1.889Zm3.261-3.182h2.462l-.709-1.641-.46-1.17h-.124l-.461 1.17-.708 1.641Z" fill="#fff"/></svg>